<svg xmlns="http://www.w3.org/2000/svg" viewBox="0 0 1200 630" width="1200" height="630">
<defs>
<linearGradient id="b" x1="0" y1="0" x2="1" y2="1"><stop offset="0" stop-color="#04191B"/><stop offset=".6" stop-color="#0B3A3C"/><stop offset="1" stop-color="#07272A"/></linearGradient>
<radialGradient id="l" cx="18%" cy="12%" r="70%"><stop offset="0" stop-color="#6FE0D0" stop-opacity=".38"/><stop offset="1" stop-color="#6FE0D0" stop-opacity="0"/></radialGradient>
<radialGradient id="m" cx="88%" cy="86%" r="60%"><stop offset="0" stop-color="#159A93" stop-opacity=".45"/><stop offset="1" stop-color="#159A93" stop-opacity="0"/></radialGradient>
<linearGradient id="g" x1="0" y1="0" x2="1" y2="1"><stop offset="0" stop-color="#159A93"/><stop offset="1" stop-color="#6FE0D0"/></linearGradient>
</defs>
<rect width="1200" height="630" fill="url(#b)"/><rect width="1200" height="630" fill="url(#l)"/><rect width="1200" height="630" fill="url(#m)"/>
<g transform="translate(80 74)">
<g transform="scale(.62)"><path d="M50 8 79 21v27c0 20-14 31-29 37-15-6-29-17-29-37V21L50 8Z" fill="none" stroke="url(#g)" stroke-width="4.5" stroke-linejoin="round"/><path d="M30 52h11l6-13 8 26 5-13h10" fill="none" stroke="url(#g)" stroke-width="5" stroke-linecap="round" stroke-linejoin="round"/></g>
<text x="76" y="40" fill="#fff" font-family="Manrope,Segoe UI,sans-serif" font-size="30" font-weight="800" letter-spacing="4">LUMEN VET</text>
<text x="76" y="66" fill="#7FBEB6" font-family="Manrope,Segoe UI,sans-serif" font-size="15" letter-spacing="3">ВЕТЕРИНАРНАЯ КЛИНИКА · 24/7</text>
</g>
<text x="80" y="330" fill="#FFFFFF" font-family="Manrope,Segoe UI,sans-serif" font-size="58" font-weight="300" letter-spacing="-2">Как перевести питомца на новый корм без по</text>
<text x="80" y="404" fill="#A9C7C4" font-family="Manrope,Segoe UI,sans-serif" font-size="27" font-weight="400">Пошаговая схема перевода за 7–10 дней и признаки, при которых нужн</text>
<rect x="80" y="486" width="286" height="62" rx="31" fill="url(#g)"/>
<text x="223" y="525" fill="#03181A" font-family="Manrope,Segoe UI,sans-serif" font-size="21" font-weight="700" text-anchor="middle">Записаться на приём</text>
<text x="404" y="525" fill="#CFF3EC" font-family="Manrope,Segoe UI,sans-serif" font-size="21" font-weight="600">+7 (495) 120-24-07</text>
</svg>