<svg xmlns="http://www.w3.org/2000/svg" viewBox="0 0 900 1035" width="900" height="1035" role="img" preserveAspectRatio="xMidYMid slice">
<defs>
<linearGradient id="i27730base" x1="0" y1="0" x2="1" y2="1">
<stop offset="0" stop-color="#2A231A"/><stop offset=".55" stop-color="#6B5A42"/><stop offset="1" stop-color="#2A231A"/>
</linearGradient>
<radialGradient id="i27730l1" cx="33%" cy="28%" r="72%">
<stop offset="0" stop-color="#F1EADD" stop-opacity="0.37"/><stop offset="1" stop-color="#F1EADD" stop-opacity="0"/>
</radialGradient>
<radialGradient id="i27730l2" cx="70%" cy="66%" r="66%">
<stop offset="0" stop-color="#B49B78" stop-opacity=".5"/><stop offset="1" stop-color="#B49B78" stop-opacity="0"/>
</radialGradient>
<radialGradient id="i27730l3" cx="57%" cy="74%" r="60%">
<stop offset="0" stop-color="#FFF6E6" stop-opacity=".24"/><stop offset="1" stop-color="#FFF6E6" stop-opacity="0"/>
</radialGradient>
<radialGradient id="i27730bok"><stop offset="0" stop-color="#F1EADD" stop-opacity=".85"/><stop offset=".72" stop-color="#F1EADD" stop-opacity=".18"/><stop offset="1" stop-color="#F1EADD" stop-opacity="0"/></radialGradient>
<radialGradient id="i27730vig" cx="50%" cy="46%" r="72%"><stop offset=".5" stop-color="#000" stop-opacity="0"/><stop offset="1" stop-color="#2A231A" stop-opacity=".72"/></radialGradient>
<linearGradient id="i27730sw" x1="0" y1="1" x2="1" y2="0"><stop offset="0" stop-color="#fff" stop-opacity="0"/><stop offset=".5" stop-color="#fff" stop-opacity=".13"/><stop offset="1" stop-color="#fff" stop-opacity="0"/></linearGradient>
<linearGradient id="i27730sil" x1="0" y1="0" x2="0" y2="1"><stop offset="0" stop-color="#2A231A" stop-opacity=".46"/><stop offset=".5" stop-color="#2A231A" stop-opacity=".68"/><stop offset="1" stop-color="#2A231A" stop-opacity=".88"/></linearGradient>
<linearGradient id="i27730rim" x1="0" y1="0" x2="1" y2="1"><stop offset="0" stop-color="#F1EADD" stop-opacity=".55"/><stop offset=".5" stop-color="#F1EADD" stop-opacity=".12"/><stop offset="1" stop-color="#F1EADD" stop-opacity="0"/></linearGradient>
<linearGradient id="i27730dof" x1="0" y1="0" x2="0" y2="1"><stop offset="0" stop-color="#2A231A" stop-opacity="0"/><stop offset="1" stop-color="#2A231A" stop-opacity=".45"/></linearGradient>
<filter id="i27730blur" x="-20%" y="-20%" width="140%" height="140%"><feGaussianBlur stdDeviation="4.7"/></filter>
<filter id="i27730soft" x="-20%" y="-20%" width="140%" height="140%"><feGaussianBlur stdDeviation="3.0"/></filter>
<filter id="i27730grain"><feTurbulence type="fractalNoise" baseFrequency=".85" numOctaves="3" stitchTiles="stitch"/><feColorMatrix type="saturate" values="0"/></filter>
</defs>
<rect width="900" height="1035" fill="url(#i27730base)"/>
<rect width="900" height="1035" fill="url(#i27730l1)"/>
<rect width="900" height="1035" fill="url(#i27730l2)"/>
<rect width="900" height="1035" fill="url(#i27730l3)"/>
<g filter="url(#i27730blur)"><circle cx="16" cy="724" r="78" fill="url(#i27730bok)" opacity="0.17"/><circle cx="761" cy="674" r="58" fill="url(#i27730bok)" opacity="0.25"/><circle cx="726" cy="867" r="129" fill="url(#i27730bok)" opacity="0.28"/><circle cx="22" cy="833" r="52" fill="url(#i27730bok)" opacity="0.28"/><circle cx="762" cy="248" r="36" fill="url(#i27730bok)" opacity="0.29"/><circle cx="862" cy="368" r="45" fill="url(#i27730bok)" opacity="0.34"/><circle cx="878" cy="496" r="96" fill="url(#i27730bok)" opacity="0.15"/><circle cx="566" cy="545" r="81" fill="url(#i27730bok)" opacity="0.29"/><circle cx="165" cy="979" r="81" fill="url(#i27730bok)" opacity="0.12"/><circle cx="86" cy="1033" r="131" fill="url(#i27730bok)" opacity="0.21"/></g>
<g transform="translate(-73 -31) scale(5.486)" filter="url(#i27730soft)">
<path d="M42,196 C40,164 46,141 58,128 C52,116 55,100 67,93 C78,87 92,91 96,102 C101,113 97,124 90,130 C106,137 118,152 123,172 C132,161 148,160 156,169 C164,178 162,192 152,196 Z" fill="url(#i27730sil)"/><path d="M42,196 C40,164 46,141 58,128 C52,116 55,100 67,93 C78,87 92,91 96,102 C101,113 97,124 90,130 C106,137 118,152 123,172 C132,161 148,160 156,169 C164,178 162,192 152,196 Z" fill="none" stroke="url(#i27730rim)" stroke-width="2.2"/>
</g>
<rect y="642" width="900" height="393" fill="url(#i27730dof)"/>
<rect width="900" height="1035" fill="url(#i27730sw)"/>
<rect width="900" height="1035" fill="url(#i27730vig)"/>
<rect width="900" height="1035" filter="url(#i27730grain)" opacity=".055" style="mix-blend-mode:overlay"/>
</svg>