<svg xmlns="http://www.w3.org/2000/svg" viewBox="0 0 400 400" width="400" height="400" role="img" preserveAspectRatio="xMidYMid slice">
<defs>
<linearGradient id="i22408base" x1="0" y1="0" x2="1" y2="1">
<stop offset="0" stop-color="#2A231A"/><stop offset=".55" stop-color="#6B5A42"/><stop offset="1" stop-color="#2A231A"/>
</linearGradient>
<radialGradient id="i22408l1" cx="23%" cy="18%" r="72%">
<stop offset="0" stop-color="#F1EADD" stop-opacity="0.37"/><stop offset="1" stop-color="#F1EADD" stop-opacity="0"/>
</radialGradient>
<radialGradient id="i22408l2" cx="85%" cy="72%" r="66%">
<stop offset="0" stop-color="#B49B78" stop-opacity=".5"/><stop offset="1" stop-color="#B49B78" stop-opacity="0"/>
</radialGradient>
<radialGradient id="i22408l3" cx="66%" cy="65%" r="60%">
<stop offset="0" stop-color="#FFF6E6" stop-opacity=".24"/><stop offset="1" stop-color="#FFF6E6" stop-opacity="0"/>
</radialGradient>
<radialGradient id="i22408bok"><stop offset="0" stop-color="#F1EADD" stop-opacity=".85"/><stop offset=".72" stop-color="#F1EADD" stop-opacity=".18"/><stop offset="1" stop-color="#F1EADD" stop-opacity="0"/></radialGradient>
<radialGradient id="i22408vig" cx="50%" cy="46%" r="72%"><stop offset=".5" stop-color="#000" stop-opacity="0"/><stop offset="1" stop-color="#2A231A" stop-opacity=".72"/></radialGradient>
<linearGradient id="i22408sw" x1="0" y1="1" x2="1" y2="0"><stop offset="0" stop-color="#fff" stop-opacity="0"/><stop offset=".5" stop-color="#fff" stop-opacity=".13"/><stop offset="1" stop-color="#fff" stop-opacity="0"/></linearGradient>
<linearGradient id="i22408sil" x1="0" y1="0" x2="0" y2="1"><stop offset="0" stop-color="#2A231A" stop-opacity=".46"/><stop offset=".5" stop-color="#2A231A" stop-opacity=".68"/><stop offset="1" stop-color="#2A231A" stop-opacity=".88"/></linearGradient>
<linearGradient id="i22408rim" x1="0" y1="0" x2="1" y2="1"><stop offset="0" stop-color="#F1EADD" stop-opacity=".55"/><stop offset=".5" stop-color="#F1EADD" stop-opacity=".12"/><stop offset="1" stop-color="#F1EADD" stop-opacity="0"/></linearGradient>
<linearGradient id="i22408dof" x1="0" y1="0" x2="0" y2="1"><stop offset="0" stop-color="#2A231A" stop-opacity="0"/><stop offset="1" stop-color="#2A231A" stop-opacity=".45"/></linearGradient>
<filter id="i22408blur" x="-20%" y="-20%" width="140%" height="140%"><feGaussianBlur stdDeviation="2.1"/></filter>
<filter id="i22408soft" x="-20%" y="-20%" width="140%" height="140%"><feGaussianBlur stdDeviation="1.3"/></filter>
<filter id="i22408grain"><feTurbulence type="fractalNoise" baseFrequency=".85" numOctaves="3" stitchTiles="stitch"/><feColorMatrix type="saturate" values="0"/></filter>
</defs>
<rect width="400" height="400" fill="url(#i22408base)"/>
<rect width="400" height="400" fill="url(#i22408l1)"/>
<rect width="400" height="400" fill="url(#i22408l2)"/>
<rect width="400" height="400" fill="url(#i22408l3)"/>
<g filter="url(#i22408blur)"><circle cx="216" cy="387" r="33" fill="url(#i22408bok)" opacity="0.16"/><circle cx="204" cy="102" r="35" fill="url(#i22408bok)" opacity="0.13"/><circle cx="303" cy="263" r="45" fill="url(#i22408bok)" opacity="0.15"/><circle cx="184" cy="10" r="21" fill="url(#i22408bok)" opacity="0.21"/><circle cx="383" cy="81" r="37" fill="url(#i22408bok)" opacity="0.30"/><circle cx="158" cy="233" r="57" fill="url(#i22408bok)" opacity="0.20"/><circle cx="177" cy="2" r="20" fill="url(#i22408bok)" opacity="0.14"/></g>
<g transform="translate(-30 -12) scale(2.120)" filter="url(#i22408soft)">
<path d="M30,126 C34,113 45,104 63,100 C71,83 79,69 97,61 C105,51 117,49 123,58 C129,68 125,85 119,95 C131,111 139,133 147,159 L157,196 L108,196 C104,173 96,158 82,150 C68,144 52,142 42,146 C32,150 26,140 30,126 Z" fill="url(#i22408sil)"/><path d="M30,126 C34,113 45,104 63,100 C71,83 79,69 97,61 C105,51 117,49 123,58 C129,68 125,85 119,95 C131,111 139,133 147,159 L157,196 L108,196 C104,173 96,158 82,150 C68,144 52,142 42,146 C32,150 26,140 30,126 Z" fill="none" stroke="url(#i22408rim)" stroke-width="2.2"/>
</g>
<rect y="248" width="400" height="152" fill="url(#i22408dof)"/>
<rect width="400" height="400" fill="url(#i22408sw)"/>
<rect width="400" height="400" fill="url(#i22408vig)"/>
<rect width="400" height="400" filter="url(#i22408grain)" opacity=".055" style="mix-blend-mode:overlay"/>
</svg>