<svg xmlns="http://www.w3.org/2000/svg" viewBox="0 0 1200 750" width="1200" height="750" role="img" preserveAspectRatio="xMidYMid slice">
<defs>
<linearGradient id="i59607base" x1="0" y1="0" x2="1" y2="1">
<stop offset="0" stop-color="#03181A"/><stop offset=".55" stop-color="#0A3B3D"/><stop offset="1" stop-color="#03181A"/>
</linearGradient>
<radialGradient id="i59607l1" cx="41%" cy="29%" r="72%">
<stop offset="0" stop-color="#6FE0D0" stop-opacity="0.37"/><stop offset="1" stop-color="#6FE0D0" stop-opacity="0"/>
</radialGradient>
<radialGradient id="i59607l2" cx="78%" cy="66%" r="66%">
<stop offset="0" stop-color="#0F827E" stop-opacity=".5"/><stop offset="1" stop-color="#0F827E" stop-opacity="0"/>
</radialGradient>
<radialGradient id="i59607l3" cx="58%" cy="66%" r="60%">
<stop offset="0" stop-color="#C9B392" stop-opacity=".24"/><stop offset="1" stop-color="#C9B392" stop-opacity="0"/>
</radialGradient>
<radialGradient id="i59607bok"><stop offset="0" stop-color="#6FE0D0" stop-opacity=".85"/><stop offset=".72" stop-color="#6FE0D0" stop-opacity=".18"/><stop offset="1" stop-color="#6FE0D0" stop-opacity="0"/></radialGradient>
<radialGradient id="i59607vig" cx="50%" cy="46%" r="72%"><stop offset=".5" stop-color="#000" stop-opacity="0"/><stop offset="1" stop-color="#03181A" stop-opacity=".72"/></radialGradient>
<linearGradient id="i59607sw" x1="0" y1="1" x2="1" y2="0"><stop offset="0" stop-color="#fff" stop-opacity="0"/><stop offset=".5" stop-color="#fff" stop-opacity=".13"/><stop offset="1" stop-color="#fff" stop-opacity="0"/></linearGradient>
<linearGradient id="i59607sil" x1="0" y1="0" x2="0" y2="1"><stop offset="0" stop-color="#03181A" stop-opacity=".46"/><stop offset=".5" stop-color="#03181A" stop-opacity=".68"/><stop offset="1" stop-color="#03181A" stop-opacity=".88"/></linearGradient>
<linearGradient id="i59607rim" x1="0" y1="0" x2="1" y2="1"><stop offset="0" stop-color="#6FE0D0" stop-opacity=".55"/><stop offset=".5" stop-color="#6FE0D0" stop-opacity=".12"/><stop offset="1" stop-color="#6FE0D0" stop-opacity="0"/></linearGradient>
<linearGradient id="i59607dof" x1="0" y1="0" x2="0" y2="1"><stop offset="0" stop-color="#03181A" stop-opacity="0"/><stop offset="1" stop-color="#03181A" stop-opacity=".45"/></linearGradient>
<filter id="i59607blur" x="-20%" y="-20%" width="140%" height="140%"><feGaussianBlur stdDeviation="6.3"/></filter>
<filter id="i59607soft" x="-20%" y="-20%" width="140%" height="140%"><feGaussianBlur stdDeviation="4.0"/></filter>
<filter id="i59607grain"><feTurbulence type="fractalNoise" baseFrequency=".85" numOctaves="3" stitchTiles="stitch"/><feColorMatrix type="saturate" values="0"/></filter>
</defs>
<rect width="1200" height="750" fill="url(#i59607base)"/>
<rect width="1200" height="750" fill="url(#i59607l1)"/>
<rect width="1200" height="750" fill="url(#i59607l2)"/>
<rect width="1200" height="750" fill="url(#i59607l3)"/>
<g filter="url(#i59607blur)"><circle cx="50" cy="21" r="125" fill="url(#i59607bok)" opacity="0.33"/><circle cx="266" cy="161" r="61" fill="url(#i59607bok)" opacity="0.16"/><circle cx="952" cy="180" r="105" fill="url(#i59607bok)" opacity="0.12"/><circle cx="310" cy="337" r="77" fill="url(#i59607bok)" opacity="0.13"/><circle cx="133" cy="248" r="53" fill="url(#i59607bok)" opacity="0.11"/><circle cx="936" cy="627" r="160" fill="url(#i59607bok)" opacity="0.12"/><circle cx="594" cy="261" r="142" fill="url(#i59607bok)" opacity="0.16"/><circle cx="719" cy="475" r="117" fill="url(#i59607bok)" opacity="0.20"/></g>
<g transform="translate(196 0) scale(3.750)" filter="url(#i59607soft)">
<path d="M46,196 L46,168 L58,168 L58,72 C58,62 66,54 76,54 L142,54 C152,54 160,62 160,72 L160,168 L172,168 L172,196 Z" fill="url(#i59607sil)"/><path d="M46,196 L46,168 L58,168 L58,72 C58,62 66,54 76,54 L142,54 C152,54 160,62 160,72 L160,168 L172,168 L172,196 Z" fill="none" stroke="url(#i59607rim)" stroke-width="2.2"/>
</g>
<rect y="465" width="1200" height="285" fill="url(#i59607dof)"/>
<rect width="1200" height="750" fill="url(#i59607sw)"/>
<rect width="1200" height="750" fill="url(#i59607vig)"/>
<rect width="1200" height="750" filter="url(#i59607grain)" opacity=".055" style="mix-blend-mode:overlay"/>
</svg>