<svg xmlns="http://www.w3.org/2000/svg" viewBox="0 0 1200 750" width="1200" height="750" role="img" preserveAspectRatio="xMidYMid slice">
<defs>
<linearGradient id="i83613base" x1="0" y1="0" x2="1" y2="1">
<stop offset="0" stop-color="#03181A"/><stop offset=".55" stop-color="#0A3B3D"/><stop offset="1" stop-color="#03181A"/>
</linearGradient>
<radialGradient id="i83613l1" cx="21%" cy="21%" r="72%">
<stop offset="0" stop-color="#6FE0D0" stop-opacity="0.37"/><stop offset="1" stop-color="#6FE0D0" stop-opacity="0"/>
</radialGradient>
<radialGradient id="i83613l2" cx="68%" cy="86%" r="66%">
<stop offset="0" stop-color="#0F827E" stop-opacity=".5"/><stop offset="1" stop-color="#0F827E" stop-opacity="0"/>
</radialGradient>
<radialGradient id="i83613l3" cx="78%" cy="68%" r="60%">
<stop offset="0" stop-color="#C9B392" stop-opacity=".24"/><stop offset="1" stop-color="#C9B392" stop-opacity="0"/>
</radialGradient>
<radialGradient id="i83613bok"><stop offset="0" stop-color="#6FE0D0" stop-opacity=".85"/><stop offset=".72" stop-color="#6FE0D0" stop-opacity=".18"/><stop offset="1" stop-color="#6FE0D0" stop-opacity="0"/></radialGradient>
<radialGradient id="i83613vig" cx="50%" cy="46%" r="72%"><stop offset=".5" stop-color="#000" stop-opacity="0"/><stop offset="1" stop-color="#03181A" stop-opacity=".72"/></radialGradient>
<linearGradient id="i83613sw" x1="0" y1="1" x2="1" y2="0"><stop offset="0" stop-color="#fff" stop-opacity="0"/><stop offset=".5" stop-color="#fff" stop-opacity=".13"/><stop offset="1" stop-color="#fff" stop-opacity="0"/></linearGradient>
<linearGradient id="i83613sil" x1="0" y1="0" x2="0" y2="1"><stop offset="0" stop-color="#03181A" stop-opacity=".46"/><stop offset=".5" stop-color="#03181A" stop-opacity=".68"/><stop offset="1" stop-color="#03181A" stop-opacity=".88"/></linearGradient>
<linearGradient id="i83613rim" x1="0" y1="0" x2="1" y2="1"><stop offset="0" stop-color="#6FE0D0" stop-opacity=".55"/><stop offset=".5" stop-color="#6FE0D0" stop-opacity=".12"/><stop offset="1" stop-color="#6FE0D0" stop-opacity="0"/></linearGradient>
<linearGradient id="i83613dof" x1="0" y1="0" x2="0" y2="1"><stop offset="0" stop-color="#03181A" stop-opacity="0"/><stop offset="1" stop-color="#03181A" stop-opacity=".45"/></linearGradient>
<filter id="i83613blur" x="-20%" y="-20%" width="140%" height="140%"><feGaussianBlur stdDeviation="6.3"/></filter>
<filter id="i83613soft" x="-20%" y="-20%" width="140%" height="140%"><feGaussianBlur stdDeviation="4.0"/></filter>
<filter id="i83613grain"><feTurbulence type="fractalNoise" baseFrequency=".85" numOctaves="3" stitchTiles="stitch"/><feColorMatrix type="saturate" values="0"/></filter>
</defs>
<rect width="1200" height="750" fill="url(#i83613base)"/>
<rect width="1200" height="750" fill="url(#i83613l1)"/>
<rect width="1200" height="750" fill="url(#i83613l2)"/>
<rect width="1200" height="750" fill="url(#i83613l3)"/>
<g filter="url(#i83613blur)"><circle cx="91" cy="188" r="149" fill="url(#i83613bok)" opacity="0.20"/><circle cx="836" cy="100" r="50" fill="url(#i83613bok)" opacity="0.20"/><circle cx="788" cy="473" r="138" fill="url(#i83613bok)" opacity="0.32"/><circle cx="803" cy="230" r="119" fill="url(#i83613bok)" opacity="0.20"/><circle cx="180" cy="732" r="137" fill="url(#i83613bok)" opacity="0.18"/><circle cx="897" cy="560" r="68" fill="url(#i83613bok)" opacity="0.10"/><circle cx="408" cy="521" r="109" fill="url(#i83613bok)" opacity="0.14"/><circle cx="275" cy="728" r="138" fill="url(#i83613bok)" opacity="0.28"/><circle cx="395" cy="61" r="72" fill="url(#i83613bok)" opacity="0.17"/></g>
<g transform="translate(243 -23) scale(3.975)" filter="url(#i83613soft)">
<path d="M30,126 C34,113 45,104 63,100 C71,83 79,69 97,61 C105,51 117,49 123,58 C129,68 125,85 119,95 C131,111 139,133 147,159 L157,196 L108,196 C104,173 96,158 82,150 C68,144 52,142 42,146 C32,150 26,140 30,126 Z" fill="url(#i83613sil)"/><path d="M30,126 C34,113 45,104 63,100 C71,83 79,69 97,61 C105,51 117,49 123,58 C129,68 125,85 119,95 C131,111 139,133 147,159 L157,196 L108,196 C104,173 96,158 82,150 C68,144 52,142 42,146 C32,150 26,140 30,126 Z" fill="none" stroke="url(#i83613rim)" stroke-width="2.2"/>
</g>
<rect y="465" width="1200" height="285" fill="url(#i83613dof)"/>
<rect width="1200" height="750" fill="url(#i83613sw)"/>
<rect width="1200" height="750" fill="url(#i83613vig)"/>
<rect width="1200" height="750" filter="url(#i83613grain)" opacity=".055" style="mix-blend-mode:overlay"/>
</svg>