<svg xmlns="http://www.w3.org/2000/svg" viewBox="0 0 1200 750" width="1200" height="750" role="img" preserveAspectRatio="xMidYMid slice">
<defs>
<linearGradient id="i94562base" x1="0" y1="0" x2="1" y2="1">
<stop offset="0" stop-color="#1C2A22"/><stop offset=".55" stop-color="#3E5847"/><stop offset="1" stop-color="#1C2A22"/>
</linearGradient>
<radialGradient id="i94562l1" cx="32%" cy="16%" r="72%">
<stop offset="0" stop-color="#CBDACE" stop-opacity="0.37"/><stop offset="1" stop-color="#CBDACE" stop-opacity="0"/>
</radialGradient>
<radialGradient id="i94562l2" cx="89%" cy="74%" r="66%">
<stop offset="0" stop-color="#6E8874" stop-opacity=".5"/><stop offset="1" stop-color="#6E8874" stop-opacity="0"/>
</radialGradient>
<radialGradient id="i94562l3" cx="61%" cy="84%" r="60%">
<stop offset="0" stop-color="#E4D9C2" stop-opacity=".24"/><stop offset="1" stop-color="#E4D9C2" stop-opacity="0"/>
</radialGradient>
<radialGradient id="i94562bok"><stop offset="0" stop-color="#CBDACE" stop-opacity=".85"/><stop offset=".72" stop-color="#CBDACE" stop-opacity=".18"/><stop offset="1" stop-color="#CBDACE" stop-opacity="0"/></radialGradient>
<radialGradient id="i94562vig" cx="50%" cy="46%" r="72%"><stop offset=".5" stop-color="#000" stop-opacity="0"/><stop offset="1" stop-color="#1C2A22" stop-opacity=".72"/></radialGradient>
<linearGradient id="i94562sw" x1="0" y1="1" x2="1" y2="0"><stop offset="0" stop-color="#fff" stop-opacity="0"/><stop offset=".5" stop-color="#fff" stop-opacity=".13"/><stop offset="1" stop-color="#fff" stop-opacity="0"/></linearGradient>
<linearGradient id="i94562sil" x1="0" y1="0" x2="0" y2="1"><stop offset="0" stop-color="#1C2A22" stop-opacity=".46"/><stop offset=".5" stop-color="#1C2A22" stop-opacity=".68"/><stop offset="1" stop-color="#1C2A22" stop-opacity=".88"/></linearGradient>
<linearGradient id="i94562rim" x1="0" y1="0" x2="1" y2="1"><stop offset="0" stop-color="#CBDACE" stop-opacity=".55"/><stop offset=".5" stop-color="#CBDACE" stop-opacity=".12"/><stop offset="1" stop-color="#CBDACE" stop-opacity="0"/></linearGradient>
<linearGradient id="i94562dof" x1="0" y1="0" x2="0" y2="1"><stop offset="0" stop-color="#1C2A22" stop-opacity="0"/><stop offset="1" stop-color="#1C2A22" stop-opacity=".45"/></linearGradient>
<filter id="i94562blur" x="-20%" y="-20%" width="140%" height="140%"><feGaussianBlur stdDeviation="6.3"/></filter>
<filter id="i94562soft" x="-20%" y="-20%" width="140%" height="140%"><feGaussianBlur stdDeviation="4.0"/></filter>
<filter id="i94562grain"><feTurbulence type="fractalNoise" baseFrequency=".85" numOctaves="3" stitchTiles="stitch"/><feColorMatrix type="saturate" values="0"/></filter>
</defs>
<rect width="1200" height="750" fill="url(#i94562base)"/>
<rect width="1200" height="750" fill="url(#i94562l1)"/>
<rect width="1200" height="750" fill="url(#i94562l2)"/>
<rect width="1200" height="750" fill="url(#i94562l3)"/>
<g filter="url(#i94562blur)"><circle cx="826" cy="134" r="61" fill="url(#i94562bok)" opacity="0.18"/><circle cx="152" cy="413" r="126" fill="url(#i94562bok)" opacity="0.11"/><circle cx="745" cy="307" r="153" fill="url(#i94562bok)" opacity="0.12"/><circle cx="789" cy="154" r="158" fill="url(#i94562bok)" opacity="0.17"/><circle cx="78" cy="250" r="134" fill="url(#i94562bok)" opacity="0.10"/><circle cx="979" cy="685" r="169" fill="url(#i94562bok)" opacity="0.12"/><circle cx="195" cy="508" r="67" fill="url(#i94562bok)" opacity="0.23"/><circle cx="199" cy="47" r="139" fill="url(#i94562bok)" opacity="0.21"/><circle cx="133" cy="573" r="58" fill="url(#i94562bok)" opacity="0.23"/><circle cx="1101" cy="582" r="108" fill="url(#i94562bok)" opacity="0.14"/></g>
<g transform="translate(234 -23) scale(3.975)" filter="url(#i94562soft)">
<path d="M100,196 C73,196 58,180 58,158 C58,141 67,128 78,119 C73,109 71,95 73,83 L81,60 L97,78 C105,75 115,75 123,78 L139,60 L147,83 C149,95 147,109 142,119 C153,128 162,141 162,158 C162,180 147,196 120,196 Z" fill="url(#i94562sil)"/><path d="M100,196 C73,196 58,180 58,158 C58,141 67,128 78,119 C73,109 71,95 73,83 L81,60 L97,78 C105,75 115,75 123,78 L139,60 L147,83 C149,95 147,109 142,119 C153,128 162,141 162,158 C162,180 147,196 120,196 Z" fill="none" stroke="url(#i94562rim)" stroke-width="2.2"/>
</g>
<rect y="465" width="1200" height="285" fill="url(#i94562dof)"/>
<rect width="1200" height="750" fill="url(#i94562sw)"/>
<rect width="1200" height="750" fill="url(#i94562vig)"/>
<rect width="1200" height="750" filter="url(#i94562grain)" opacity=".055" style="mix-blend-mode:overlay"/>
</svg>